<?xml version="1.0" encoding="UTF-8"?>
<svg width="129px" height="228px" viewBox="0 0 129 228" version="1.1" xmlns="http://www.w3.org/2000/svg" xmlns:xlink="http://www.w3.org/1999/xlink">
    <!-- Generator: Sketch 52.6 (67491) - http://www.bohemiancoding.com/sketch -->
    <title>man-plant</title>
    <desc>Created with Sketch.</desc>
    <g id="Desktop-R4" stroke="none" stroke-width="1" fill="none" fill-rule="evenodd">
        <g id="2.1-Why-college-matters" transform="translate(-126.000000, -343.000000)">
            <g id="c2.0.d-hero-3rd-level-illustration" transform="translate(0.000000, 120.000000)">
                <g id="hero-illustration" transform="translate(0.000000, 224.000000)">
                    <g id="man-plant" transform="translate(190.500000, 113.500000) scale(-1, 1) translate(-190.500000, -113.500000) translate(127.000000, 0.000000)">
                        <polyline id="Stroke-1" stroke="#56C2C1" stroke-width="2" stroke-linecap="round" stroke-linejoin="round" points="78.6129302 203.813517 88.5000896 213.72813 94.6372599 209.625845 78.9534577 180.224854"></polyline>
                        <g id="Group-68" transform="translate(0.000000, 0.393226)">
                            <path d="M55.2655154,142.748177 C50.4751033,157.759335 47.6552846,171.377409 57.8145868,184.617651 L59.8605429,187.011292" id="Stroke-2" stroke="#56C2C1" stroke-width="2" stroke-linecap="round" stroke-linejoin="round"></path>
                            <g id="Group-7" transform="translate(60.708791, 217.603715)" stroke="#56C2C1" stroke-linecap="round" stroke-linejoin="round" stroke-width="2">
                                <polyline id="Stroke-6" points="17.0049511 1.41274489 16.8814401 7.69596471 0.673588462 7.56232384 9.6717478 2.53015046 9.38146209 0.202980186"></polyline>
                            </g>
                            <g id="Group-11" transform="translate(86.527473, 209.207430)" stroke="#56C2C1" stroke-linecap="round" stroke-linejoin="round" stroke-width="2">
                                <polyline id="Stroke-10" points="8.90695659 0.635808669 12.8830335 5.49445882 0.471923626 15.9471337 4.05374231 6.2613195 2.32668187 4.68071889"></polyline>
                            </g>
                            <path d="M84.7496819,141.542121 C73.8395445,145.644406 46.9043797,141.88357 46.9043797,141.88357 L52.018572,97.0984861 L41.862061,90.3324799 L44.5423192,76.5562755 C44.5423192,76.5562755 55.4280335,78.6385542 61.2246764,83.7665851 C64.7018247,86.8424241 69.2061379,92.2398359 75.20305,89.5775139 C79.5594291,87.6442693 83.4985225,89.0744365 88.2714896,93.8603189 C91.8881984,97.4861146 96.0010445,103.252263 96.0010445,103.252263 L92.591583,114.534071 L81.2348522,106.292418 L84.7496819,141.542121 Z" id="Stroke-12" stroke="#56C2C1" stroke-width="2" stroke-linecap="round" stroke-linejoin="round"></path>
                            <path d="M43.8723593,78.7401492 C43.8723593,78.7401492 31.9406396,75.5075796 26.7985352,63.1888303 C26.7985352,63.1888303 24.0519857,53.8997406 21.9411341,54.1649232 C18.0180901,54.658205 13.654733,54.5063721 11.2270791,52.8753938 C10.0994308,52.1183288 8.80500769,52.8334124 9.08412857,54.1649232 C9.08412857,54.1649232 10.370178,55.8840625 11.7985791,57.3163288 C13.2269802,58.748595 18.5735407,60.7574062 18.5735407,60.7574062 C20.7513813,80.2521802 42.1969363,88.8198892 42.1969363,88.8198892" id="Stroke-14" stroke="#56C2C1" stroke-width="2" stroke-linecap="round" stroke-linejoin="round"></path>
                            <path d="M93.3495357,113.220402 C93.3495357,113.220402 99.2522445,116.603406 103.01619,117.212136 C108.209931,118.051765 109.987931,110.663034 111.663354,87.1422415 C112.753321,86.3382972 113.842591,85.5336533 114.932558,84.7290093 C117.669338,82.7083034 119.300799,81.4229721 120.775953,78.2729659 C120.784327,76.9113684 119.300799,75.5854551 118.346904,76.5538266 C116.293272,78.6382043 110.171453,81.3963839 106.280508,80.6924954 C105.18775,80.494483 104.656723,82.1751393 105.029349,83.2232755 L105.987431,85.9156842 C106.112338,86.2676285 106.099777,86.6440619 106.056514,87.0141981 C104.471107,100.635771 101.115376,108.039195 101.115376,108.039195 L95.8288269,105.051517" id="Stroke-16" stroke="#56C2C1" stroke-width="2" stroke-linecap="round" stroke-linejoin="round"></path>
                            <path d="M63.3076159,85.7965269 C63.3076159,85.7965269 64.1149731,77.8907251 61.6712698,76.5382235 C59.0363687,75.0786693 56.8962093,72.5989666 58.5834951,69.4580563 C59.2457093,68.2266012 58.9624016,67.2778211 58.9624016,67.2778211 C58.9624016,67.2778211 57.4984126,64.102626 60.2861324,64.8149108 C63.7346709,65.6944217 65.0318852,63.2098211 65.0318852,63.2098211" id="Stroke-18" stroke="#56C2C1" stroke-width="2" stroke-linecap="round" stroke-linejoin="round"></path>
                            <path d="M76.7113495,79.748683 C81.4026736,73.3647077 80.0035802,70.796844 78.3037341,65.1090607 C76.6038879,59.4219771 69.5986516,56.3335437 66.0538165,59.9817294 C63.5703385,62.5369988 65.9993879,67.752491 67.6050308,70.7849492 C69.5491077,74.4569245 66.9407231,76.6539523 66.8262835,80.4203858 C66.8262835,80.4203858 67.3287011,82.7720452 70.3446022,83.4444477 C73.3605033,84.1161505 76.7113495,79.748683 76.7113495,79.748683 Z" id="Stroke-20" stroke="#56C2C1" stroke-width="2" stroke-linecap="round" stroke-linejoin="round"></path>
                            <path d="M19.1532049,54.7019356 L13.8673533,54.7019356 C12.2379852,54.7019356 10.8668038,53.4788768 10.6776995,51.8569944 L9.02390824,37.7295455 L23.99665,37.7295455 L22.3435566,51.8569944 C22.1537544,53.4788768 20.7825731,54.7019356 19.1532049,54.7019356" id="Fill-22" fill="#F3F3F3"></path>
                            <path d="M19.1532049,54.7019356 L13.8673533,54.7019356 C12.2379852,54.7019356 10.8668038,53.4788768 10.6776995,51.8569944 L9.02390824,37.7295455 L23.99665,37.7295455 L22.3435566,51.8569944 C22.1537544,53.4788768 20.7825731,54.7019356 19.1532049,54.7019356 Z" id="Stroke-24" stroke="#56C2C1" stroke-width="2"></path>
                            <path d="M13.6556401,37.5653282 C11.983706,35.9518421 12.0130137,33.5078235 12.7108159,31.4381393 C13.4079203,29.3691548 15.4154973,27.673805 15.4329423,25.3921146 C15.4594588,21.7985046 11.0256236,19.9758111 8.83592033,17.8725418 C6.77949725,15.8980155 6.17589835,13.691192 6.4766511,10.8777368 C6.67343132,9.03965015 7.27633242,6.62851703 9.21412912,5.89104334 C11.8943874,4.87229412 15.9409423,5.16616409 17.6568379,7.69904334 C18.8793874,9.50354489 18.3860412,11.4668762 18.1760027,13.4567957 C17.9575907,15.530678 18.690283,17.6976192 20.2010247,19.146678 C20.8785907,19.7959907 21.6985082,20.3123622 22.2302335,21.0862198 C22.951761,22.1350557 23.032706,23.4987523 22.8994258,24.7658916 C22.5993709,27.6024365 22.2944313,30.5138483 21.1095632,33.1411858 C20.485728,34.523774 19.4641456,35.6719659 20.0935632,37.6709814" id="Stroke-26" stroke="#56C2C1" stroke-width="2" stroke-linecap="round" stroke-linejoin="round"></path>
                            <path d="M21.2980396,32.5339245 C21.571578,32.3513053 22.6294462,28.0901907 24.8261275,26.5949523 C27.4400945,24.8163393 30.4315725,23.9697139 31.160078,26.4368223 C31.9388253,29.070457 29.3374187,29.4517882 27.3333308,31.7362774 C25.3285451,34.0200669 23.3300396,34.6994663 22.0537593,37.7144322" id="Stroke-28" stroke="#56C2C1" stroke-width="2" stroke-linecap="round" stroke-linejoin="round"></path>
                            <path d="M13.232772,30.3860149 C13.1050742,30.3006526 11.7750632,29.7017176 9.83098626,27.2269127 C8.04810165,24.9585164 6.07681044,21.420182 4.32044231,20.7155938 C3.14673901,20.2454019 1.35687637,20.0802749 0.661167582,21.4110861 C-0.114788462,22.8951294 1.2696511,25.1166464 2.10561813,26.2977238 C3.12580495,27.7397858 4.40836538,29.1755505 5.8088544,30.2551728 C7.10327747,31.2529313 7.94064011,32.2429932 8.89802473,33.6458724 C10.2084973,35.5665226 10.7123104,37.5879282 10.7123104,37.5879282" id="Stroke-30" stroke="#56C2C1" stroke-width="2" stroke-linecap="round" stroke-linejoin="round"></path>
                            <path d="M6.52054286,13.012982 C6.52054286,13.012982 6.30213077,10.5479728 4.41178462,9.41097585 C2.61215275,8.32785511 1.24097143,8.88550836 0.253581319,10.927205 C-0.733808791,12.9689015 1.39797692,15.4618985 2.63238901,15.7704619 C4.12847692,16.1461957 4.9162956,18.1291183 4.9162956,18.1291183 C4.9162956,18.1291183 5.47383956,20.3576322 5.0419,21.1615765" id="Stroke-32" stroke="#56C2C1" stroke-width="2" stroke-linecap="round" stroke-linejoin="round"></path>
                            <path d="M19.0884489,17.847283 C19.0884489,17.847283 21.6947401,15.4417474 22.622817,8.287413 C22.9452016,5.80421176 24.6631907,1.74740681 26.1830038,0.87629226 C27.37485,0.193394427 29.3314874,-0.103274303 30.5254269,1.31219938 C31.7200643,2.72697337 32.4799709,4.7952582 29.657361,7.9522613 C26.8340533,11.1092644 25.5312566,12.0895307 25.4230973,14.2662675 C25.3142401,16.443704 27.8423775,16.6822985 25.6401137,19.9274625 C23.9437566,22.4253573 22.6842236,25.9636916 22.6842236,25.9636916" id="Stroke-34" stroke="#56C2C1" stroke-width="2" stroke-linecap="round" stroke-linejoin="round"></path>
                            <path d="M112.779977,81.3346012 C103.715527,82.8725207 95.1234885,76.7516291 93.5897192,67.6626508 C92.05595,58.5736724 98.1603236,49.9583845 107.224774,48.420465 C116.289225,46.8825455 124.881263,53.0034372 126.415032,62.0924155 C127.948802,71.1813938 121.844428,79.7966817 112.779977,81.3346012" id="Fill-36" fill="#F3F3F3"></path>
                            <path d="M112.779977,81.3346012 C103.715527,82.8725207 95.1234885,76.7516291 93.5897192,67.6626508 C92.05595,58.5736724 98.1603236,49.9583845 107.224774,48.420465 C116.289225,46.8825455 124.881263,53.0034372 126.415032,62.0924155 C127.948802,71.1813938 121.844428,79.7966817 112.779977,81.3346012 Z" id="Stroke-38" stroke="#56C2C1" stroke-width="2" stroke-linecap="round" stroke-linejoin="round"></path>
                            <g id="Group-43" transform="translate(109.554945, 61.572755)">
                                <path d="M16.7214341,0.465713932 L0.49543956,3.21969536" id="Fill-40" fill="#FFFFFF"></path>
                                <path d="M16.7214341,0.465713932 L0.49543956,3.21969536" id="Stroke-42" stroke="#56C2C1" stroke-width="2" stroke-linecap="round" stroke-linejoin="round"></path>
                            </g>
                            <g id="Group-47" transform="translate(96.296703, 55.275542)">
                                <path d="M13.2763846,9.49472879 L0.0949010989,0.18884644" id="Fill-44" fill="#FFFFFF"></path>
                                <path d="M13.2763846,9.49472879 L0.0949010989,0.18884644" id="Stroke-46" stroke="#56C2C1" stroke-width="2" stroke-linecap="round" stroke-linejoin="round"></path>
                            </g>
                            <g id="Group-51" transform="translate(109.554945, 64.371517)">
                                <path d="M0.188197253,0.682268111 L4.57876868,16.6317108" id="Fill-48" fill="#FFFFFF"></path>
                                <path d="M0.188197253,0.682268111 L4.57876868,16.6317108" id="Stroke-50" stroke="#56C2C1" stroke-width="2" stroke-linecap="round" stroke-linejoin="round"></path>
                            </g>
                            <g id="Group-55" transform="translate(108.857143, 47.578947)">
                                <path d="M0.932682418,17.2575839 L0.174869231,0.587460062" id="Fill-52" fill="#FFFFFF"></path>
                                <path d="M0.932682418,17.2575839 L0.174869231,0.587460062" id="Stroke-54" stroke="#56C2C1" stroke-width="2" stroke-linecap="round" stroke-linejoin="round"></path>
                            </g>
                            <path d="M71.1823835,83.7800892 C71.1823835,83.7800892 72.1872187,88.1482563 74.0308121,89.4923616" id="Stroke-56" stroke="#56C2C1" stroke-width="2" stroke-linecap="round" stroke-linejoin="round"></path>
                            <path d="M78.5849484,218.168505 C78.3023385,202.340109 77.2374923,186.896542 79.1264429,171.117124 C80.2519978,161.720282 81.2847451,152.311546 82.3635473,142.909106" id="Stroke-58" stroke="#56C2C1" stroke-width="2" stroke-linecap="round" stroke-linejoin="round"></path>
                            <g id="Group-63" transform="translate(58.615385, 142.736842)" stroke="#56C2C1" stroke-linecap="round" stroke-linejoin="round" stroke-width="2">
                                <path d="M4.69223132,0.514902167 C4.69223132,0.514902167 -3.52787857,29.5737443 2.60929176,50.0858681" id="Stroke-62"></path>
                            </g>
                            <g id="Group-67" transform="translate(60.708791, 192.414861)" stroke="#56C2C1" stroke-linecap="round" stroke-linejoin="round" stroke-width="2">
                                <path d="M0.515606044,0.407639628 C6.65277637,20.9197635 7.98836978,25.4110762 7.98836978,25.4110762 L17.8762269,25.7539245" id="Stroke-66"></path>
                            </g>
                        </g>
                    </g>
                </g>
            </g>
        </g>
    </g>
</svg>